<?xml version="1.0" encoding="UTF-8" standalone="no"?>
<!-- Created with Inkscape (http://www.inkscape.org/) -->

<svg
   width="49.719681mm"
   height="125.78609mm"
   viewBox="0 0 49.719681 125.78609"
   version="1.1"
   id="svg5"
   inkscape:version="1.1.1 (1:1.1+202109281949+c3084ef5ed)"
   sodipodi:docname="insole_simple.svg"
   xmlns:inkscape="http://www.inkscape.org/namespaces/inkscape"
   xmlns:sodipodi="http://sodipodi.sourceforge.net/DTD/sodipodi-0.dtd"
   xmlns="http://www.w3.org/2000/svg"
   xmlns:svg="http://www.w3.org/2000/svg">
  <sodipodi:namedview
     id="namedview7"
     pagecolor="#ffffff"
     bordercolor="#666666"
     borderopacity="1.0"
     inkscape:pageshadow="2"
     inkscape:pageopacity="0.0"
     inkscape:pagecheckerboard="0"
     inkscape:document-units="mm"
     showgrid="false"
     inkscape:zoom="0.94704617"
     inkscape:cx="73.914031"
     inkscape:cy="205.37541"
     inkscape:window-width="1366"
     inkscape:window-height="704"
     inkscape:window-x="0"
     inkscape:window-y="27"
     inkscape:window-maximized="1"
     inkscape:current-layer="layer1"
     fit-margin-top="0"
     fit-margin-left="0"
     fit-margin-right="0"
     fit-margin-bottom="0" />
  <defs
     id="defs2">
    <inkscape:path-effect
       effect="fillet_chamfer"
       id="path-effect2621"
       is_visible="true"
       lpeversion="1"
       satellites_param="F,0,0,1,0,6,0,1 @ F,0,0,1,0,6,0,1 @ F,0,0,1,0,6,0,1 @ F,0,0,1,0,6,0,1 @ F,0,0,1,0,6,0,1 @ F,0,0,1,0,6,0,1 | F,0,0,1,0,6,0,1 @ F,0,0,1,0,6,0,1 @ F,0,0,1,0,6,0,1 @ F,0,0,1,0,6,0,1 @ F,0,0,1,0,6,0,1 | F,0,0,1,0,6,0,1 @ F,0,0,1,0,6,0,1 @ F,0,0,1,0,6,0,1 @ F,0,0,1,0,6,0,1 | F,0,0,1,0,6,0,1 @ F,0,0,1,0,6,0,1 @ F,0,0,1,0,6,0,1 @ F,0,0,1,0,6,0,1 @ F,0,0,1,0,6,0,1 | F,0,0,1,0,6,0,1 @ F,0,0,1,0,6,0,1 @ F,0,0,1,0,6,0,1 @ F,0,0,1,0,6,0,1 | F,0,0,1,0,6,0,1 @ F,0,0,1,0,6,0,1 @ F,0,0,1,0,6,0,1 @ F,0,0,1,0,6,0,1 | F,0,0,1,0,6,0,1 @ F,0,0,1,0,6,0,1 @ F,0,0,1,0,6,0,1 @ F,0,0,1,0,6,0,1 @ F,0,0,1,0,6,0,1 | F,0,0,1,0,6,0,1 @ F,0,0,1,0,6,0,1 @ F,0,0,1,0,6,0,1 @ F,0,0,1,0,6,0,1 @ F,0,0,1,0,6,0,1 | F,0,0,1,0,6,0,1 @ F,0,0,1,0,6,0,1 @ F,0,0,1,0,6,0,1 @ F,0,0,1,0,6,0,1 | F,0,0,1,0,6,0,1 @ F,0,0,1,0,6,0,1 @ F,0,0,1,0,6,0,1 @ F,0,0,1,0,6,0,1 | F,0,0,1,0,6,0,1 @ F,0,0,1,0,6,0,1 @ F,0,0,1,0,6,0,1 @ F,0,0,1,0,6,0,1 @ F,0,0,1,0,6,0,1 | F,0,0,1,0,6,0,1 @ F,0,0,1,0,6,0,1 @ F,0,0,1,0,6,0,1 @ F,0,0,1,0,6,0,1 | F,0,0,1,0,6,0,1 @ F,0,0,1,0,6,0,1 @ F,0,0,1,0,6,0,1 @ F,0,0,1,0,6,0,1 | F,0,0,1,0,6,0,1 @ F,0,0,1,0,6,0,1 @ F,0,0,1,0,6,0,1 @ F,0,0,1,0,6,0,1 @ F,0,0,1,0,6,0,1"
       unit="mm"
       method="auto"
       mode="F"
       radius="6"
       chamfer_steps="1"
       flexible="false"
       use_knot_distance="true"
       apply_no_radius="true"
       apply_with_radius="true"
       only_selected="false"
       hide_knots="false" />
  </defs>
  <g
     inkscape:label="Calque 1"
     inkscape:groupmode="layer"
     id="layer1"
     transform="translate(-50.243163,-30.773817)">
    <path
       id="path918"
       style="fill:none;stroke:#000000;stroke-width:1.75748;stroke-linecap:round;stroke-linejoin:bevel;paint-order:markers fill stroke;stop-color:#000000"
       d="m 261.25781,117.19141 c -6.71925,-0.0544 -14.06444,0.90579 -22.10351,3.17578 -51.45008,14.52793 -63.30882,107.69608 -28.59375,178.55469 34.71507,70.85862 35.25976,92.34346 35.25976,127.12109 v 105.43359 c -1e-5,32.78691 26.57833,59.36719 59.36524,59.36719 32.7869,0 59.36524,-26.58028 59.36523,-59.36719 0,0 -0.69922,-48.72999 -0.69922,-108.58398 0,-59.85405 13.08203,-64.61149 13.08203,-127.53516 0,-62.92368 -37.71824,-119.31925 -50.52734,-134.86523 -10.80767,-13.11692 -28.86445,-43.00707 -65.14844,-43.30078 z"
       transform="scale(0.26458333)" />
    <path
       style="fill:none;stroke:#000000;stroke-width:1.75748;stroke-linecap:round;stroke-linejoin:bevel;paint-order:markers fill stroke;stop-color:#000000"
       d="m 309.7207,497.08995 v 71.50977 c 0,3.31371 2.68825,5.73226 5.89449,4.90575 10.57941,-2.72718 20.29154,-9.40018 26.18007,-18.62656 1.7809,-2.79039 3.93496,-7.7483 4.84505,-10.93188 0.57422,-2.00868 1.03033,-4.09547 1.3533,-6.19466 0.50357,-3.27301 0.53884,-8.65729 0.52094,-11.97095 -0.0517,-9.56281 -0.14623,-19.1271 -0.24852,-28.69185 -0.0354,-3.3135 -2.75115,-5.99962 -6.06486,-5.99962 H 315.7207 a 6,6 135 0 0 -6,6 z"
       transform="scale(0.26458333)"
       id="path2771" />
    <path
       style="fill:none;stroke:#000000;stroke-width:1.75748;stroke-linecap:round;stroke-linejoin:bevel;paint-order:markers fill stroke;stop-color:#000000"
       d="m 261.80771,497.08994 c 0.0305,11.36704 0.122,22.73277 0.34632,34.09723 0.0654,3.31302 0.37435,8.69359 1.23835,11.88912 3.96438,14.66233 16.42443,26.71125 31.11372,30.50877 3.20513,0.8286 5.90015,-1.62866 5.90015,-4.94237 v -71.55274 a 6,6 45 0 0 -6,-6 h -26.60937 c -3.31371,0 -5.99806,2.68629 -5.98917,5.99999 z"
       transform="scale(0.26458333)"
       id="path2769" />
    <path
       style="fill:none;stroke:#000000;stroke-width:1.75748;stroke-linecap:round;stroke-linejoin:bevel;paint-order:markers fill stroke;stop-color:#000000"
       d="m 309.7207,410.64464 v 65.01563 a 6,6 45 0 0 6,6 h 26.38868 c 3.31371,0 5.97216,-2.68615 5.94121,-5.99971 -0.20246,-21.67502 -0.28235,-43.35035 0.2387,-65.01888 0.0797,-3.31229 -2.52636,-5.99704 -5.84007,-5.99704 H 315.7207 a 6,6 135 0 0 -6,6 z"
       transform="scale(0.26458333)"
       id="path2767" />
    <path
       style="fill:none;stroke:#000000;stroke-width:1.75748;stroke-linecap:round;stroke-linejoin:bevel;paint-order:markers fill stroke;stop-color:#000000"
       d="m 261.62317,410.64064 c 0.008,0.6159 0.0488,3.8012 0.0851,7.11471 0.21147,19.29955 0.13201,38.60314 0.10039,57.90529 -0.005,3.31343 2.67838,5.99949 5.99209,5.99949 h 26.60547 a 6,6 135 0 0 6,-6 V 410.6445 a 6,6 45 0 0 -6,-6 h -26.98828 c -3.31371,0 -5.83928,2.68292 -5.7948,5.99614 z"
       transform="scale(0.26458333)"
       id="path2765" />
    <path
       style="fill:none;stroke:#000000;stroke-width:1.75748;stroke-linecap:round;stroke-linejoin:bevel;paint-order:markers fill stroke;stop-color:#000000"
       d="m 324.82812,320.19724 v 69.01562 a 6,6 45 0 0 6,6 h 12.08008 c 3.31371,0 6.20795,-2.67836 6.51144,-5.97812 2.13946,-23.26251 5.84222,-45.75288 7.05801,-69.04479 0.17268,-3.30817 -2.43152,-5.99271 -5.74523,-5.99271 h -19.9043 a 6,6 135 0 0 -6,6 z"
       transform="scale(0.26458333)"
       id="path2763" />
    <path
       style="fill:none;stroke:#000000;stroke-width:1.75748;stroke-linecap:round;stroke-linejoin:bevel;paint-order:markers fill stroke;stop-color:#000000"
       d="m 288.85938,320.19724 v 69.01562 a 6,6 45 0 0 6,6 h 14.65429 a 6,6 135 0 0 6,-6 v -69.01562 a 6,6 45 0 0 -6,-6 h -14.65429 a 6,6 135 0 0 -6,6 z"
       transform="scale(0.26458333)"
       id="path2761" />
    <path
       style="fill:none;stroke:#000000;stroke-width:1.75748;stroke-linecap:round;stroke-linejoin:bevel;paint-order:markers fill stroke;stop-color:#000000"
       d="m 237.95023,319.66793 c 0.69723,1.58754 2.33359,5.33801 3.6305,8.38735 8.34393,19.61854 15.24343,40.11592 18.3188,61.20655 0.47811,3.27886 3.44887,5.95103 6.76258,5.95103 h 7.24805 a 6,6 135 0 0 6,-6 v -69.01562 a 6,6 45 0 0 -6,-6 h -32.42383 c -3.31371,0 -4.8686,2.43673 -3.5361,5.47069 z"
       transform="scale(0.26458333)"
       id="path2759" />
    <path
       style="fill:none;stroke:#000000;stroke-width:1.75748;stroke-linecap:round;stroke-linejoin:bevel;paint-order:markers fill stroke;stop-color:#000000"
       d="m 324.82812,230.19724 v 68.57031 a 6,6 45 0 0 6,6 h 20.09961 c 3.31371,0 5.99543,-2.68797 5.82096,-5.99677 -0.69472,-13.17563 -3.30714,-27.42944 -6.3415,-39.9386 -0.78114,-3.22025 -2.11889,-8.42394 -2.97224,-11.62585 -1.57636,-5.91477 -3.26734,-11.68477 -5.1009,-17.32272 -1.02482,-3.15119 -4.60042,-5.68637 -7.91413,-5.68637 h -3.5918 a 6,6 135 0 0 -6,6 z"
       transform="scale(0.26458333)"
       id="path2757" />
    <path
       style="fill:none;stroke:#000000;stroke-width:1.75748;stroke-linecap:round;stroke-linejoin:bevel;paint-order:markers fill stroke;stop-color:#000000"
       d="m 288.85938,230.19724 v 68.57031 a 6,6 45 0 0 6,6 h 14.65429 a 6,6 135 0 0 6,-6 v -68.57031 a 6,6 45 0 0 -6,-6 h -14.65429 a 6,6 135 0 0 -6,6 z"
       transform="scale(0.26458333)"
       id="path2755" />
    <path
       style="fill:none;stroke:#000000;stroke-width:1.75748;stroke-linecap:round;stroke-linejoin:bevel;paint-order:markers fill stroke;stop-color:#000000"
       d="m 250.8457,230.19724 v 68.57031 a 6,6 45 0 0 6,6 h 17.06446 a 6,6 135 0 0 6,-6 v -68.57031 a 6,6 45 0 0 -6,-6 H 256.8457 a 6,6 135 0 0 -6,6 z"
       transform="scale(0.26458333)"
       id="path2753" />
    <path
       style="fill:none;stroke:#000000;stroke-width:1.75748;stroke-linecap:round;stroke-linejoin:bevel;paint-order:markers fill stroke;stop-color:#000000"
       d="m 207.68562,230.17754 c 1.10999,11.32568 3.32279,22.58012 6.49403,33.48684 0.92514,3.1818 2.58905,8.29228 3.73759,11.40035 3.06183,8.28563 6.77055,16.30374 10.56515,24.28718 1.42246,2.9927 5.26835,5.41567 8.58206,5.41567 a 5.4595592,5.4595592 129.0039 0 0 4.85938,-6 v -68.57031 a 6,6 45 0 0 -6,-6 h -22.72071 c -3.31371,0 -5.8407,2.68253 -5.5175,5.98027 z"
       transform="scale(0.26458333)"
       id="path2751" />
    <path
       style="fill:none;stroke:#000000;stroke-width:1.75748;stroke-linecap:round;stroke-linejoin:bevel;paint-order:markers fill stroke;stop-color:#000000"
       d="m 288.85938,148.89258 v 59.875 a 6,6 45 0 0 6,6 h 36.05273 c 3.31371,0 5.02695,-2.50441 3.74135,-5.55848 -8.17472,-19.41985 -18.74792,-37.27249 -33.1974,-54.09246 -2.15925,-2.51348 -5.78054,-6.49355 -8.25351,-8.69726 -2.30691,-2.05573 -4.34317,-0.84051 -4.34317,2.4732 z"
       transform="scale(0.26458333)"
       id="path2749" />
    <path
       style="fill:none;stroke:#000000;stroke-width:1.75748;stroke-linecap:round;stroke-linejoin:bevel;paint-order:markers fill stroke;stop-color:#000000"
       d="m 236.45306,138.84061 c -2.72839,1.46566 -5.27465,3.24174 -7.54802,5.3566 -2.4227,2.25378 -5.70933,6.54355 -7.52565,9.31347 -7.08856,10.81021 -10.74159,23.69842 -12.70535,36.34131 -0.50858,3.27426 -1.12724,8.61353 -1.37363,11.91784 -0.17351,2.32679 -0.29406,4.66045 -0.36359,6.99847 -0.0985,3.31206 2.61861,5.99928 5.93232,5.99928 h 23.05469 a 6,6 135 0 0 6,-6 v -66.37891 c 0,-3.31371 -2.55397,-5.11493 -5.47077,-3.54806 z"
       transform="scale(0.26458333)"
       id="path2747" />
    <path
       style="fill:none;stroke:#000000;stroke-width:1.75748;stroke-linecap:round;stroke-linejoin:bevel;paint-order:markers fill stroke;stop-color:#000000"
       d="m 259.48828,133.24219 c -7.45657,0.58747 -8.64258,3.48121 -8.64258,6.79492 v 68.73047 a 6,6 45 0 0 6,6 h 17.06446 a 6,6 135 0 0 6,-6 v -65.25391 c 0,-3.31371 -2.42165,-7.19311 -5.56992,-8.22002 -2.00689,-0.65461 -4.05852,-1.16888 -6.14621,-1.52465 -3.26358,-0.55616 -7.19514,-0.60224 -8.70575,-0.52681 z"
       transform="scale(0.26458333)"
       id="path1509" />
  </g>
</svg>
